<svg xmlns="http://www.w3.org/2000/svg" version="1.1" xmlns:xlink="http://www.w3.org/1999/xlink" xmlns:svgjs="http://svgjs.dev/svgjs" width="1440" height="560" preserveAspectRatio="none" viewBox="0 0 1440 560">
    <g mask="url(&quot;#SvgjsMask1138&quot;)" fill="none">
        <rect width="1440" height="560" x="0" y="0" fill="rgba(159, 186, 193, 1)"></rect>
        <path d="M0,589.511C130.828,594.065,276.727,672.617,384.66,598.542C492.925,524.239,469.018,358.249,515.76,235.54C558.679,122.866,661.518,26.638,648.151,-93.19C634.714,-213.645,543.199,-313.898,446.34,-386.756C359.525,-452.059,246.234,-454.564,139.671,-475.675C43.135,-494.8,-51.688,-524.057,-148.143,-504.529C-249.964,-483.914,-336.965,-426.998,-418.533,-362.661C-515.813,-285.931,-644.11,-217.694,-666.335,-95.805C-688.565,26.114,-579.235,128.291,-528.683,241.441C-477.621,355.733,-472.382,503.514,-367.827,572.35C-263.189,641.241,-125.204,585.153,0,589.511" fill="#6a949f"></path>
        <path d="M1440 1251.6480000000001C1567.73 1239.091 1620.398 1078.086 1727.63 1007.56 1833.166 938.15 2005.004 956.8399999999999 2060.66 843.446 2116.062 730.569 2027.7069999999999 600.082 1985.821 481.523 1951.277 383.746 1893.964 302.314 1838.522 214.67899999999997 1772.3029999999999 110.00799999999998 1739.7359999999999-27.859000000000037 1628.763-82.86800000000005 1514.333-139.59000000000003 1373.814-118.04100000000005 1253.4470000000001-75.34000000000003 1136.671-33.91300000000001 1041.5520000000001 51.351999999999975 968.4359999999999 151.387 899.26 246.02999999999997 853.343 358.105 850.97 475.31 848.744 585.28 911.124 680.617 955.6859999999999 781.179 1000.806 883 1033.692 990.325 1113.576 1067.925 1204.987 1156.723 1313.171 1264.116 1440 1251.6480000000001" fill="#d5e0e4"></path>
    </g>
    <defs>
        <mask id="SvgjsMask1138">
            <rect width="1440" height="560" fill="#ffffff"></rect>
        </mask>
    </defs>
</svg>